:SAMPLES-PER-SECOND 30
:FULLY-SPECIFIED
:DEGREES
1
root  13.2426 39.907 1.49661 -153.912 -89.141 151.145
RightUpLeg  3.44248 -9.17071 -7.91438
RightLeg  1.75671 6.67343 -1.05259
RightFoot  -2.49521 -0.449604 5.56143
RightToes  -8.73116e-010 0 -3.6325e-017
Spine  1.79683 0.420496 0.730625
Spine1  2.23148 0.443919 -0.211283
HEad  -8.89511 -6.84115 -3.08577
LeftShoulder1  0.0277526 3.16402 -0.224142
LeftArm  -21.2817 3.58887 -16.5208
LeftForeArm  -4.46944 1.17274 2.64438
LeftHand  -0.0172087 2.97485 -0.0106289
RightShoulder  0.104201 -2.07807 -0.551124
RightArm  -9.95361 0.583125 10.7404
RightForeArm  -0.630454 -1.18536 -3.01992
RightHand  -0.0124183 3.78944 -0.417214
LeftUpLeg  3.919 8.68489 7.31264
LeftLeg  2.19431 -3.9157 0.675495
LeftFoot  -2.69658 0.288593 -3.5066
LeftToes  -5.63919e-011 3.32596e-011 1.92487e-011
2
root  13.2466 39.9086 1.50049 -151.676 -89.1297 148.937
RightUpLeg  3.42075 -9.16478 -7.93816
RightLeg  1.71833 6.62938 -1.07844
RightFoot  -2.50919 -0.45266 5.60893
RightToes  -8.73116e-010 0 -3.6325e-017
Spine  1.75585 0.4155 0.725153
Spine1  2.26816 0.439856 -0.23555
HEad  -8.93717 -6.80982 -3.04064
LeftShoulder1  0.0277526 3.26005 -0.252938
LeftArm  -21.3599 3.43245 -16.5572
LeftForeArm  -4.34555 1.21653 2.67336
LeftHand  -0.0178372 3.07036 0.118068
RightShoulder  0.104197 -2.09382 -0.514779
RightArm  -9.94882 0.572742 10.6807
RightForeArm  -0.51567 -1.12969 -3.01453
RightHand  -0.004601 3.60852 -0.313215
LeftUpLeg  3.8541 8.6692 7.25721
LeftLeg  2.24106 -3.87028 0.663288
LeftFoot  -2.68385 0.281696 -3.39924
LeftToes  -5.63919e-011 3.32596e-011 1.92487e-011
3
root  13.2533 39.9123 1.50608 -148.977 -89.134 146.221
RightUpLeg  3.42936 -9.2047 -8.00537
RightLeg  1.73505 6.66168 -1.06219
RightFoot  -2.49355 -0.455069 5.64637
RightToes  -8.73116e-010 0 -3.6325e-017
Spine  1.7875 0.414603 0.750817
Spine1  2.26359 0.447871 -0.277023
HEad  -9.1014 -6.7547 -2.88768
LeftShoulder1  0.0277526 3.22919 -0.304687
LeftArm  -21.317 3.36304 -16.47
LeftForeArm  -4.45578 1.25476 2.64536
LeftHand  -0.0174497 2.9925 0.0634497
RightShoulder  0.10419 -2.13408 -0.47979
RightArm  -9.8633 0.560665 10.642
RightForeArm  -0.706896 -1.18515 -2.98282
RightHand  -0.0147683 3.50663 -0.441581
LeftUpLeg  3.85092 8.68304 7.22282
LeftLeg  2.25517 -3.87217 0.62327
LeftFoot  -2.63381 0.269418 -3.20814
LeftToes  -5.63919e-011 3.32596e-011 1.92487e-011
4
root  13.2574 39.9118 1.51136 -150.24 -89.1162 147.472
RightUpLeg  3.42399 -9.2068 -8.00732
RightLeg  1.7522 6.73345 -1.06331
RightFoot  -2.47273 -0.452805 5.61117
RightToes  -8.73116e-010 0 -3.6325e-017
Spine  1.81671 0.436059 0.873013
Spine1  2.24604 0.495432 -0.393455
HEad  -9.27789 -6.80715 -2.67376
LeftShoulder1  0.0277526 3.08604 -0.245307
LeftArm  -21.2945 3.4748 -16.4494
LeftForeArm  -4.75693 1.22911 2.63541
LeftHand  -0.0219924 3.41193 0.19715
RightShoulder  0.104392 -2.25273 -0.248722
RightArm  -9.68136 0.752063 10.4401
RightForeArm  -0.81005 -1.25334 -2.89686
RightHand  -0.0200758 3.5434 -0.511628
LeftUpLeg  3.90547 8.65277 7.21294
LeftLeg  2.17494 -3.8636 0.667516
LeftFoot  -2.64115 0.279737 -3.36874
LeftToes  -5.63919e-011 3.32596e-011 1.92487e-011
5
root  13.2606 39.9181 1.51186 -150.443 -89.1453 147.69
RightUpLeg  3.40984 -9.18847 -7.97503
RightLeg  1.75113 6.69797 -1.07482
RightFoot  -2.38327 -0.452561 5.60739
RightToes  -8.73116e-010 0 -3.6325e-017
Spine  1.788 0.418116 0.819452
Spine1  2.27985 0.448276 -0.238411
HEad  -9.58489 -6.61821 -2.51456
LeftShoulder1  0.0277526 3.17178 -0.263214
LeftArm  -21.2439 3.47198 -16.4796
LeftForeArm  -4.86178 1.12383 2.57929
LeftHand  -0.0270484 3.81203 0.233874
RightShoulder  0.105305 -2.2396 -0.370179
RightArm  -9.80966 0.712148 10.5685
RightForeArm  -0.695055 -1.23765 -2.95398
RightHand  -0.00751222 3.57736 -0.349652
LeftUpLeg  3.8882 8.68107 7.24241
LeftLeg  2.1639 -3.86785 0.6283
LeftFoot  -2.60376 0.269925 -3.21602
LeftToes  -5.63919e-011 3.32596e-011 1.92487e-011
6
root  13.2634 39.9109 1.51293 -147.362 -89.17 144.612
RightUpLeg  3.44178 -9.21141 -8.00338
RightLeg  1.66552 6.61061 -1.07146
RightFoot  -2.43249 -0.452639 5.60861
RightToes  -8.73116e-010 0 -3.6325e-017
Spine  1.80792 0.398733 0.802992
Spine1  2.22678 0.430601 -0.272398
HEad  -9.51979 -6.71361 -2.62833
LeftShoulder1  0.0276839 3.18371 -0.184658
LeftArm  -21.2881 3.48698 -16.5612
LeftForeArm  -4.70028 1.13941 2.61041
LeftHand  -0.0258336 3.64121 0.329706
RightShoulder  0.106224 -2.21164 -0.323936
RightArm  -9.84697 0.609663 10.5367
RightForeArm  -0.465344 -1.10536 -2.97707
RightHand  0.00622976 3.51655 -0.166858
LeftUpLeg  3.83629 8.67908 7.22685
LeftLeg  2.23525 -3.94937 0.609615
LeftFoot  -2.63467 0.277302 -3.33084
LeftToes  -5.63919e-011 3.32596e-011 1.92487e-011
7
root  13.2684 39.9124 1.51636 -146.961 -89.1221 144.248
RightUpLeg  3.34542 -9.23836 -8.04579
RightLeg  1.75904 6.71603 -1.05556
RightFoot  -2.45651 -0.451668 5.59351
RightToes  -8.73116e-010 0 -3.6325e-017
Spine  1.79715 0.428667 0.793486
Spine1  2.18647 0.459314 -0.242114
HEad  -9.50834 -6.75053 -2.71073
LeftShoulder1  0.0274409 3.20251 -0.120995
LeftArm  -21.3574 3.47993 -16.659
LeftForeArm  -4.71497 1.16969 2.65596
LeftHand  -0.0259962 3.60898 0.459614
RightShoulder  0.107133 -2.25327 -0.0986427
RightArm  -9.69509 0.766672 10.2824
RightForeArm  -0.23206 -1.16897 -2.92141
RightHand  0.0244785 3.28356 0.0893397
LeftUpLeg  3.84388 8.62656 7.15596
LeftLeg  2.11766 -3.85062 0.651556
LeftFoot  -2.57796 0.280684 -3.38348
LeftToes  -5.63919e-011 3.32596e-011 1.92487e-011
8
root  13.2704 39.9122 1.51834 -147.079 -89.1079 144.359
RightUpLeg  3.33925 -9.24125 -8.05606
RightLeg  1.77582 6.72761 -1.0539
RightFoot  -2.43989 -0.448161 5.53901
RightToes  -8.73116e-010 0 -3.6325e-017
Spine  1.70904 0.436054 0.871788
Spine1  2.33404 0.485251 -0.335713
HEad  -9.84307 -6.63121 -2.47526
LeftShoulder1  0.0272312 3.23263 -0.00486134
LeftArm  -21.4605 3.43333 -16.786
LeftForeArm  -4.62812 1.22733 2.72508
LeftHand  -0.0249536 3.40397 0.398961
RightShoulder  0.108051 -2.25073 0.0322829
RightArm  -9.79747 0.769783 10.2552
RightForeArm  -0.273228 -1.16793 -2.96947
RightHand  0.0270214 3.46216 0.0885751
LeftUpLeg  3.83601 8.61139 7.13939
LeftLeg  2.14565 -3.81339 0.654857
LeftFoot  -2.59813 0.280284 -3.37725
LeftToes  -5.63919e-011 3.32596e-011 1.92487e-011
9
root  13.2718 39.9159 1.51797 -146.491 -89.0768 143.764
RightUpLeg  3.35671 -9.22078 -8.05838
RightLeg  1.73387 6.69869 -1.10219
RightFoot  -2.41187 -0.450282 5.57198
RightToes  -8.73116e-010 0 -3.6325e-017
Spine  1.65222 0.455543 0.811073
Spine1  2.40534 0.484809 -0.237347
HEad  -9.72614 -6.4641 -2.47571
LeftShoulder1  0.0270312 3.17654 0.0571881
LeftArm  -21.4711 3.56639 -16.8783
LeftForeArm  -4.69201 1.21458 2.75166
LeftHand  -0.0249074 3.27293 0.232686
RightShoulder  0.108968 -2.22216 -0.0738131
RightArm  -9.84545 0.724607 10.3572
RightForeArm  -0.393809 -1.15849 -2.97976
RightHand  0.0261157 3.51634 -0.0437932
LeftUpLeg  3.85463 8.60464 7.10173
LeftLeg  2.11784 -3.76091 0.667183
LeftFoot  -2.55231 0.274632 -3.28928
LeftToes  -5.63919e-011 3.32596e-011 1.92487e-011
10
root  13.277 39.9124 1.51655 -147.73 -89.0725 145.023
RightUpLeg  3.28968 -9.22337 -8.04822
RightLeg  1.80194 6.72528 -1.08224
RightFoot  -2.45734 -0.454767 5.64168
RightToes  -8.73116e-010 0 -3.6325e-017
Spine  1.70281 0.497394 0.801147
Spine1  2.2586 0.50449 -0.115243
HEad  -9.45902 -6.64417 -2.71143
LeftShoulder1  0.0268176 3.25181 0.045642
LeftArm  -21.482 3.48522 -16.97
LeftForeArm  -4.73826 1.23561 2.74529
LeftHand  -0.0239961 3.16537 0.44903
RightShoulder  0.10988 -2.16036 -0.159969
RightArm  -9.62815 0.547154 10.3178
RightForeArm  -0.559954 -1.08698 -2.90401
RightHand  0.023505 3.53788 -0.119786
LeftUpLeg  3.83508 8.57957 7.10086
LeftLeg  2.10245 -3.76483 0.699568
LeftFoot  -2.53437 0.279272 -3.3615
LeftToes  -5.63919e-011 3.32596e-011 1.92487e-011
11
root  13.2793 39.9125 1.51497 -147.531 -89.0378 144.819
RightUpLeg  3.26944 -9.24842 -8.08322
RightLeg  1.83925 6.80353 -1.06242
RightFoot  -2.48199 -0.454538 5.64422
RightToes  -8.73116e-010 0 -3.6325e-017
Spine  1.65754 0.506634 0.719922
Spine1  2.34461 0.490249 0.00379697
HEad  -9.37088 -6.75065 -2.79787
LeftShoulder1  0.0265668 3.31396 0.197519
LeftArm  -21.5018 3.59857 -17.1826
LeftForeArm  -4.76175 1.22541 2.78007
LeftHand  -0.023755 3.02837 0.371015
RightShoulder  0.110763 -2.19108 -0.142279
RightArm  -9.66495 0.681244 10.3015
RightForeArm  -0.67121 -1.18602 -2.90461
RightHand  0.0188332 3.6771 -0.106446
LeftUpLeg  3.85546 8.5734 7.08356
LeftLeg  2.08596 -3.73138 0.690046
LeftFoot  -2.47261 0.271052 -3.23357
LeftToes  -5.63919e-011 3.32596e-011 1.92487e-011
12
root  13.2832 39.9121 1.5142 -146.09 -89.0764 143.346
RightUpLeg  3.31922 -9.27692 -8.10397
RightLeg  1.83572 6.79384 -1.02738
RightFoot  -2.51524 -0.453522 5.6485
RightToes  -8.73116e-010 0 -3.6325e-017
Spine  1.69443 0.500721 0.785289
Spine1  2.32445 0.498143 -0.0645108
HEad  -9.16254 -6.7683 -2.80369
LeftShoulder1  0.0262553 3.27454 0.36169
LeftArm  -21.5323 3.66772 -17.3139
LeftForeArm  -4.68882 1.21414 2.8031
LeftHand  -0.0241839 3.31183 0.36503
RightShoulder  0.111624 -2.2413 -0.139109
RightArm  -9.61868 0.65899 10.3251
RightForeArm  -0.582649 -1.1361 -2.88872
RightHand  0.0161942 3.66312 -0.0557994
LeftUpLeg  3.8564 8.59187 7.11046
LeftLeg  2.12502 -3.78908 0.66559
LeftFoot  -2.5821 0.285718 -3.46185
LeftToes  -5.63919e-011 3.32596e-011 1.92487e-011
13
root  13.2876 39.9118 1.51305 -144.403 -89.0809 141.662
RightUpLeg  3.28356 -9.28562 -8.10627
RightLeg  1.87355 6.76575 -1.03713
RightFoot  -2.50585 -0.447086 5.56134
RightToes  -8.73116e-010 0 -3.6325e-017
Spine  1.71254 0.498223 0.787575
Spine1  2.27742 0.493952 -0.0479224
HEad  -8.91296 -6.81259 -2.96923
LeftShoulder1  0.0258598 3.22128 0.294856
LeftArm  -21.6045 3.74535 -17.1909
LeftForeArm  -4.30033 1.24254 2.87537
LeftHand  -0.0147237 3.13415 -0.119751
RightShoulder  0.112484 -2.14347 -0.17816
RightArm  -9.49625 0.497627 10.3076
RightForeArm  -0.568327 -1.07585 -2.85927
RightHand  0.0145508 3.71979 -0.0712077
LeftUpLeg  3.82148 8.57916 7.0845
LeftLeg  2.16379 -3.80603 0.662942
LeftFoot  -2.57978 0.282246 -3.4078
LeftToes  -5.63919e-011 3.32596e-011 1.92487e-011
